{
  "accessors": [
    {
      "bufferView": 2,
      "componentType": 5126,
      "count": 32,
      "max": [
        0.30669292807579041,
        0.38805663585662842,
        0.095994234085083008
      ],
      "min": [
        -0.30669292807579041,
        -0.38805663585662842,
        -0.095994234085083008
      ],
      "type": "VEC3"
    },
    {
      "bufferView": 2,
      "byteOffset": 384,
      "componentType": 5126,
      "count": 32,
      "max": [
        1,
        1,
        1
      ],
      "min": [
        -1,
        -1,
        -1
      ],
      "type": "VEC3"
    },
    {
      "bufferView": 3,
      "componentType": 5126,
      "count": 32,
      "max": [
        0.5,
        0.98535221815109253,
        0.69524472951889038,
        -1
      ],
      "min": [
        -0.86602538824081421,
        -0.99129146337509155,
        -0.99125659465789795,
        -1
      ],
      "type": "VEC4"
    },
    {
      "bufferView": 3,
      "byteOffset": 512,
      "componentType": 5126,
      "count": 32,
      "max": [
        1,
        1,
        1,
        1
      ],
      "min": [
        1,
        1,
        1,
        1
      ],
      "type": "VEC4"
    },
    {
      "bufferView": 1,
      "componentType": 5126,
      "count": 32,
      "max": [
        0.97892189025878906,
        0.99989849328994751
      ],
      "min": [
        5.6086075346684083e-05,
        7.8082084655761719e-06
      ],
      "type": "VEC2"
    },
    {
      "bufferView": 1,
      "byteOffset": 256,
      "componentType": 5126,
      "count": 32,
      "max": [
        0.97892189025878906,
        0.99989849328994751
      ],
      "min": [
        5.6086075346684083e-05,
        7.8082084655761719e-06
      ],
      "type": "VEC2"
    },
    {
      "bufferView": 1,
      "byteOffset": 512,
      "componentType": 5126,
      "count": 32,
      "max": [
        0.97892189025878906,
        0.99989849328994751
      ],
      "min": [
        5.6086075346684083e-05,
        7.8082084655761719e-06
      ],
      "type": "VEC2"
    },
    {
      "bufferView": 1,
      "byteOffset": 768,
      "componentType": 5126,
      "count": 32,
      "max": [
        0.97892189025878906,
        0.99989849328994751
      ],
      "min": [
        5.6086075346684083e-05,
        7.8082084655761719e-06
      ],
      "type": "VEC2"
    },
    {
      "bufferView": 1,
      "byteOffset": 1024,
      "componentType": 5126,
      "count": 32,
      "max": [
        0.97892189025878906,
        0.99989849328994751
      ],
      "min": [
        5.6086075346684083e-05,
        7.8082084655761719e-06
      ],
      "type": "VEC2"
    },
    {
      "bufferView": 1,
      "byteOffset": 1280,
      "componentType": 5126,
      "count": 32,
      "max": [
        0.97892189025878906,
        0.99989849328994751
      ],
      "min": [
        5.6086075346684083e-05,
        7.8082084655761719e-06
      ],
      "type": "VEC2"
    },
    {
      "bufferView": 1,
      "byteOffset": 1536,
      "componentType": 5126,
      "count": 32,
      "max": [
        0.97892189025878906,
        0.99989849328994751
      ],
      "min": [
        5.6086075346684083e-05,
        7.8082084655761719e-06
      ],
      "type": "VEC2"
    },
    {
      "bufferView": 1,
      "byteOffset": 1792,
      "componentType": 5126,
      "count": 32,
      "max": [
        0.97892189025878906,
        0.99989849328994751
      ],
      "min": [
        5.6086075346684083e-05,
        7.8082084655761719e-06
      ],
      "type": "VEC2"
    },
    {
      "bufferView": 1,
      "byteOffset": 2048,
      "componentType": 5126,
      "count": 32,
      "max": [
        0.97892189025878906,
        0.99989849328994751
      ],
      "min": [
        5.6086075346684083e-05,
        7.8082084655761719e-06
      ],
      "type": "VEC2"
    },
    {
      "bufferView": 0,
      "componentType": 5125,
      "count": 36,
      "max": [
        31
      ],
      "min": [
        0
      ],
      "type": "SCALAR"
    }
  ],
  "asset": {
    "extras": {
      "author": "sirkitree (https://sketchfab.com/sirkitree)",
      "license": "CC-BY-4.0 (http://creativecommons.org/licenses/by/4.0/)",
      "source": "https://sketchfab.com/3d-models/lowpoly-server-dc1a175b6fae4b7697c94c40fd1cd8de",
      "title": "Lowpoly Server"
    },
    "generator": "Sketchfab-5.53.1",
    "version": "2.0"
  },
  "bufferViews": [
    {
      "buffer": 0,
      "byteLength": 144,
      "byteOffset": 0,
      "name": "floatBufferViews",
      "target": 34963
    },
    {
      "buffer": 0,
      "byteLength": 2304,
      "byteOffset": 144,
      "byteStride": 8,
      "name": "floatBufferViews",
      "target": 34962
    },
    {
      "buffer": 0,
      "byteLength": 768,
      "byteOffset": 2448,
      "byteStride": 12,
      "name": "floatBufferViews",
      "target": 34962
    },
    {
      "buffer": 0,
      "byteLength": 1024,
      "byteOffset": 3216,
      "byteStride": 16,
      "name": "floatBufferViews",
      "target": 34962
    }
  ],
  "buffers": [
    {
      "byteLength": 4240,
      "uri": "scene.bin"
    }
  ],
  "images": [
    {
      "uri": "textures/Material_50_baseColor.png"
    }
  ],
  "materials": [
    {
      "doubleSided": true,
      "emissiveFactor": [
        0,
        0,
        0
      ],
      "name": "Material_50",
      "pbrMetallicRoughness": {
        "baseColorFactor": [
          1,
          1,
          1,
          1
        ],
        "baseColorTexture": {
          "index": 0,
          "texCoord": 0
        },
        "metallicFactor": 0,
        "roughnessFactor": 0.95693760660000005
      }
    }
  ],
  "meshes": [
    {
      "name": "node_id4_Material_50_0",
      "primitives": [
        {
          "attributes": {
            "COLOR_0": 3,
            "NORMAL": 1,
            "POSITION": 0,
            "TANGENT": 2,
            "TEXCOORD_0": 4,
            "TEXCOORD_1": 5,
            "TEXCOORD_2": 6,
            "TEXCOORD_3": 7,
            "TEXCOORD_4": 8,
            "TEXCOORD_5": 9,
            "TEXCOORD_6": 10,
            "TEXCOORD_7": 11,
            "TEXCOORD_8": 12
          },
          "indices": 13,
          "material": 0,
          "mode": 4
        }
      ]
    }
  ],
  "nodes": [
    {
      "children": [
        1
      ],
      "name": "RootNode (gltf orientation matrix)",
      "rotation": [
        -0.70710678118654746,
        -0,
        -0,
        0.70710678118654757
      ]
    },
    {
      "children": [
        2
      ],
      "name": "RootNode (model correction matrix)"
    },
    {
      "children": [
        3
      ],
      "matrix": [
        1,
        0,
        0,
        0,
        0,
        0,
        1,
        0,
        0,
        -1,
        0,
        0,
        0,
        0,
        0,
        1
      ],
      "name": "297db0cd19d14133aad408e93d9fcaa6.fbx"
    },
    {
      "children": [
        4
      ],
      "name": "RootNode"
    },
    {
      "children": [
        5
      ],
      "name": "root"
    },
    {
      "children": [
        6
      ],
      "matrix": [
        0.5749942810797356,
        4.3655124677128396e-24,
        0.32339216124884446,
        0,
        -5.2687274531461739e-08,
        0.6596975922584446,
        9.3678465873380072e-08,
        0,
        -0.32339216124884013,
        -1.0747838790167841e-07,
        0.57499428107972794,
        0,
        4.7982052819861565e-07,
        3.3393309450957531e-08,
        0.25599905848503113,
        1
      ],
      "name": "node_id4"
    },
    {
      "mesh": 0,
      "name": "node_id4_Material_50_0"
    }
  ],
  "samplers": [
    {
      "magFilter": 9729,
      "minFilter": 9987,
      "wrapS": 10497,
      "wrapT": 10497
    }
  ],
  "scene": 0,
  "scenes": [
    {
      "name": "OSG_Scene",
      "nodes": [
        0
      ]
    }
  ],
  "textures": [
    {
      "sampler": 0,
      "source": 0
    }
  ]
}

